<svg xmlns="http://www.w3.org/2000/svg" id="Layer_1" data-name="Layer 1" viewBox="0 0 564.1 184"><defs><linearGradient id="linear-gradient" x1="104.5" x2="105.2" y1="538.9" y2="538.2" gradientTransform="translate(-25095 129323.3) scale(240 -240)" gradientUnits="userSpaceOnUse" patternTransform="matrix(240,0,0,-240,-25095,129323)"><stop offset="0" stop-color="#22436b"/><stop offset="1" stop-color="#0f2036"/></linearGradient><linearGradient id="linear-gradient-2" x1="104.5" x2="105.2" y1="538.9" y2="538.2" gradientTransform="translate(-25095 129323.3) scale(240 -240)" gradientUnits="userSpaceOnUse" patternTransform="matrix(240,0,0,-240,-25095,129323)"><stop offset="0" stop-color="#22436b"/><stop offset="1" stop-color="#0f2036"/></linearGradient><linearGradient id="linear-gradient-3" x1="104.4" x2="104.4" y1="529.3" y2="528.5" gradientTransform="translate(-11605 77313.9) scale(112 -146)" gradientUnits="userSpaceOnUse" patternTransform="matrix(112,0,0,-146,-11605,77313.9)"><stop offset="0" stop-color="#fff"/><stop offset="1" stop-color="#e3e9ef"/></linearGradient><linearGradient id="linear-gradient-4" x1="99.7" x2="100.4" y1="406.5" y2="405.7" gradientTransform="translate(-2277 9874.9) scale(24 -24)" gradientUnits="userSpaceOnUse" patternTransform="matrix(24,0,0,-24,-2277,9874.9)"><stop offset="0" stop-color="#f1f4f7"/><stop offset="1" stop-color="#c9d2db"/></linearGradient><linearGradient id="linear-gradient-5" x1="90" x2="90" y1="110.7" y2="110" gradientTransform="translate(-621 1001.3) scale(8 -8)" gradientUnits="userSpaceOnUse" patternTransform="matrix(8,0,0,-8,-621,1001.3)"><stop offset="0" stop-color="#ffb35c"/><stop offset="1" stop-color="#f2874a"/></linearGradient><linearGradient id="linear-gradient-6" x1="95.7" x2="95.7" y1="497.4" y2="496.8" gradientTransform="translate(-1266 31886.1) scale(14 -64)" gradientUnits="userSpaceOnUse" patternTransform="matrix(14,0,0,-64,-1266,31886.1)"><stop offset="0" stop-color="#ffb35c"/><stop offset="1" stop-color="#f2874a"/></linearGradient><clipPath id="clippath"><rect width="169.9" height="169.9" x="8.7" y="7.9" class="cls-6" rx="34" ry="34"/></clipPath><clipPath id="clippath-1"><rect width="169.9" height="169.9" x="8.7" y="7.9" class="cls-6" rx="34" ry="34"/></clipPath><clipPath id="clippath-2"><rect width="79.3" height="103.4" x="56.8" y="45.9" class="cls-6" rx="8.5" ry="8.5"/></clipPath><radialGradient id="radial-gradient" cx="104.5" cy="406.2" r=".4" fx="104.5" fy="406.2" gradientTransform="translate(-14969 9900.9) scale(144 -24)" gradientUnits="userSpaceOnUse" patternTransform="matrix(144,0,0,-24,-14969,9900.9)"><stop offset="0" stop-opacity=".3"/><stop offset="1" stop-opacity="0"/></radialGradient><style>.cls-5,.cls-6{stroke-width:0}.cls-12,.cls-13{isolation:isolate}.cls-13{fill:#3c79b5;font-family:SegoeUI,Segoe UI}.cls-5{fill:#4c99f6}.cls-6,.cls-18{fill:none}.cls-13{letter-spacing:.2em;font-size:18px}.cls-18{stroke:#d3dbe3;stroke-width:1.4px}</style></defs><g class="cls-12"><g class="cls-12"><path d="M208.7 55.1h7.5v54h-7.5Zm4.4 47h14.6c3.8 0 6.6-.7 8.4-2.2s2.6-3.5 2.6-6.2q0-2.85-.9-4.8t-3-3c-2.1-1.05-3.1-1.1-5.2-1.1h-16.5V78h16.5c2.8 0 4.9-.7 6.3-2s2.1-3.3 2.1-5.8-.8-4.7-2.4-6-4-2-7.1-2h-15.4v-7h16.8c3.5 0 6.4.6 8.8 1.8s4.1 2.9 5.3 5c1.2 2.2 1.7 4.8 1.7 7.8s-.4 3.6-1.1 5.2-1.8 3-3.3 4.2-3.3 1.9-5.5 2.3c2.2.3 4.1 1.1 5.6 2.3 1.6 1.2 2.8 2.8 3.6 4.6s1.3 3.8 1.3 5.9c0 3-.6 5.6-1.9 7.8s-3.1 3.9-5.5 5.2q-3.6 1.8-8.4 1.8h-17.4ZM263.2 107.7q-3.6-1.95-5.4-5.7c-1.2-2.5-1.9-5.5-1.9-9.1v-6.3c0-3.5.6-6.5 1.9-9 1.2-2.5 3.1-4.4 5.4-5.7s5.2-1.9 8.6-1.9 6.2.6 8.6 1.9 4.2 3.2 5.4 5.7 1.9 5.5 1.9 9V93c0 3.5-.6 6.5-1.9 9s-3.1 4.4-5.4 5.7c-2.4 1.3-5.2 2-8.6 2s-6.2-.7-8.6-2m14.7-7.7c1.4-1.7 2.2-4 2.2-7v-6.4c0-3-.7-5.3-2.2-6.9s-3.5-2.4-6.1-2.4-4.7.8-6.1 2.4-2.2 3.9-2.2 6.9V93c0 3 .7 5.3 2.2 7 1.4 1.7 3.5 2.5 6.1 2.5s4.7-.8 6.1-2.5M304.6 107.7q-3.6-1.95-5.4-5.7c-1.2-2.5-1.9-5.5-1.9-9.1v-6.3c0-3.5.6-6.5 1.9-9s3.1-4.4 5.4-5.7 5.2-1.9 8.6-1.9 6.2.6 8.6 1.9 4.2 3.2 5.4 5.7 1.9 5.5 1.9 9V93c0 3.5-.6 6.5-1.9 9s-3.1 4.4-5.4 5.7c-2.4 1.3-5.2 2-8.6 2s-6.2-.7-8.6-2m14.7-7.7c1.4-1.7 2.2-4 2.2-7v-6.4c0-3-.7-5.3-2.2-6.9s-3.5-2.4-6.1-2.4-4.7.8-6.1 2.4-2.2 3.9-2.2 6.9V93c0 3 .7 5.3 2.2 7 1.4 1.7 3.5 2.5 6.1 2.5s4.7-.8 6.1-2.5M339.8 55.1h7.6v54h-7.6Zm3.3 39.4 19.8-23.9h8.9l-29.2 32.9Zm8.9-7.6 4.9-5 16.8 27.3h-8.2L352.1 87Z" class="cls-5"/></g><g class="cls-12"><path d="M390.8 55.1h7.6v54h-7.6Zm4.7 23.8h29.9v7.2h-29.9Zm25.9-23.8h7.6v54h-7.6ZM449.2 94q0 4.05 2.1 6.3c2.1 2.25 3.3 2.2 5.8 2.2s4.4-.7 5.8-2 2-3.2 2-5.6l.5 8.1q-1.2 2.85-3.9 4.8c-2.7 1.95-4 1.9-6.6 1.9-4.3 0-7.5-1.4-9.9-4.1-2.3-2.7-3.5-6.6-3.5-11.6V70.6h7.6V94Zm15.6-23.4h7.5v38.5h-7.5ZM483.9 55.1h7.6v54h-7.6Zm11 52.8c-1.8-1.2-3.1-2.8-3.9-4.9l.5-8.1q0 2.55.9 4.2c.6 1.2 1.5 2.1 2.6 2.7s2.5.9 4.1.9c2.5 0 4.4-.8 5.8-2.3s2.1-3.7 2.1-6.4v-8.3q0-4.2-2.1-6.6c-2.1-2.4-3.3-2.3-5.8-2.3s-3 .3-4.1.9-2 1.5-2.6 2.6-.9 2.5-.9 4.1l-.8-7.4c1.2-2.3 2.7-4 4.6-5.2s4-1.8 6.3-1.8 5.1.6 7 1.8 3.4 3 4.4 5.4 1.5 5.2 1.5 8.5v8.4c0 3.3-.5 6.1-1.6 8.4-1 2.3-2.6 4.1-4.6 5.3s-4.4 1.8-7.2 1.8-4.5-.6-6.3-1.7Z" class="cls-5"/></g></g><g class="cls-12"><g class="cls-12"><text class="cls-13" transform="translate(207 143.1)"><tspan x="0" y="0">DISCOVER</tspan></text></g><text class="cls-12" style="isolation:isolate;fill:#3c79b5;letter-spacing:.2em;font-family:SegoeUI,Segoe UI;font-size:12px" transform="translate(327.4 143.1)"><tspan x="0" y="0">·</tspan></text><g class="cls-12"><text class="cls-13" transform="translate(338.9 143.1)"><tspan x="0" y="0">SEARCH</tspan></text></g><text class="cls-12" style="isolation:isolate;letter-spacing:.2em;fill:#3c79b5;font-family:SegoeUI,Segoe UI;font-size:14px" transform="translate(434.4 143.1)"><tspan x="0" y="0">·</tspan></text><g class="cls-12"><text class="cls-13" transform="translate(447.8 143.1)"><tspan x="0" y="0">LEARN</tspan></text></g></g><g style="clip-path:url(#clippath)"><path d="M8.7 7.9h169.9v169.9H8.7Z" style="stroke-width:0;fill:url(#linear-gradient)"/></g><g style="clip-path:url(#clippath-1)"><path d="M8.7 7.7h169.9v169.9H8.7Z" style="stroke-width:0;fill:url(#linear-gradient-2)"/><ellipse cx="99.2" cy="153.5" rx="51" ry="8.5" style="stroke-width:0;fill:url(#radial-gradient)"/><rect width="79.3" height="103.4" x="56.8" y="45.9" class="cls-5" rx="8.5" ry="8.5"/><g style="clip-path:url(#clippath-2)"><path d="M127.6 55.8v87.8" class="cls-18"/><path d="M130.4 55.8v87.8" class="cls-18"/><path d="M133.2 55.8v87.8" class="cls-18"/></g><rect width="79.3" height="103.4" x="53.1" y="41.3" rx="8.5" ry="8.5" style="fill:url(#linear-gradient-3);stroke:#16283f;stroke-opacity:.2;stroke-width:1.5px"/><path d="M113.4 126.6h17v17Z" style="stroke-width:0;fill:url(#linear-gradient-4)"/><path d="m113.4 126.6 17 17" style="fill:#000;stroke:#b9c4d0;stroke-width:1.2px"/><path d="M67.7 106.8h37.5c1.4 0 2.5 1.1 2.5 2.5s-1.1 2.5-2.5 2.5H67.7c-1.4 0-2.5-1.1-2.5-2.5s1.1-2.5 2.5-2.5" style="stroke-width:0;isolation:isolate;fill:#16283f;opacity:.9"/><path d="M67.4 118.1h24.1c1.2 0 2.1 1 2.1 2.1 0 1.2-1 2.1-2.1 2.1H67.4c-1.2 0-2.1-1-2.1-2.1 0-1.2 1-2.1 2.1-2.1" style="fill:#5c7fa3;opacity:.7;stroke-width:0;isolation:isolate"/><circle cx="99.2" cy="120.3" r="2.8" style="stroke-width:0;fill:url(#linear-gradient-5)"/><path d="M68.9 41.2h9.9v45.3l-5-7.1-5 7.1V41.2Z" style="stroke-width:0;fill:url(#linear-gradient-6)"/></g><text class="cls-12" style="isolation:isolate;fill:#000;font-family:ArabicTypesetting,Arabic Typesetting;font-size:12px" transform="translate(321.6 420.9)"><tspan x="0" y="0">#5ea4f6</tspan></text></svg>